{"title":"The.Speed.of.Thought.2011.DvDRip.XviD.Ac3.Feel-Free","uid":6275774,"size":1160708200,"categoryP":"video","categoryS":"movies","magnet":"?xt=urn:btih:933c16024e8d9929759974c03130a604eae1c821&amp;dn=The.Speed.of.Thought.2011.DvDRip.XviD.Ac3.Feel-Free&amp;tr=udp%3A%2F%2Ftracker.openbittorrent.com%3A80&amp;tr=udp%3A%2F%2Fopen.demonii.com%3A1337&amp;tr=udp%3A%2F%2Ftracker.coppersurfer.tk%3A6969&amp;tr=udp%3A%2F%2Fexodus.desync.com%3A6969","seeders":0,"leechers":1,"uploader":"HeroMaster","files":-1,"time":1301245419,"description":"The.Speed.of.Thought.2011.DvDRip.XviD.Ac3.Feel-Free\n\n\nGenre:Thriller\nLanguage:English\nIMDb:http://www.imdb.com/title/tt0847825/\nSource:DVD\n\n\nFormat : AVI\nFormat/Info : Audio Video Interleave\nFile size : 1.08 GiB\nDuration : 1h 34mn\nOverall bit rate : 1 643 Kbps\n\n\nVideo\nID : 0\nFormat : MPEG-4 Visual\nFormat profile : Advanced Simple@L5\nFormat settings, BVOP : Yes\nFormat settings, QPel : No\nFormat settings, GMC : No warppoints\nFormat settings, Matrix : Default (H.263)\nMuxing mode : Packed bitstream\nCodec ID : XVID\nCodec ID/Hint : XviD\nDuration : 1h 34mn\nBit rate : 1 187 Kbps\nWidth : 720 pixels\nHeight : 384 pixels\nDisplay aspect ratio : 1.875\nFrame rate : 23.976 fps\nColor space : YUV\nChroma subsampling : 4:2:0\nBit depth : 8 bits\nScan type : Progressive\nBits/(Pixel*Frame) : 0.179\nStream size : 798 MiB (72%)\nWriting library : XviD 1.2.1 (UTC 2008-12-04)\n\nAudio\nID : 1\nFormat : AC-3\nFormat/Info : Audio Coding 3\nMode extension : CM (complete main)\nCodec ID : 2000\nDuration : 1h 33mn\nBit rate mode : Constant\nBit rate : 448 Kbps\nChannel(s) : 6 channels\nChannel positions : Front: L C R, Side: L R, LFE\nSampling rate : 48.0 KHz\nBit depth : 16 bits\nStream size : 300 MiB (27%)\nAlignment : Split accross interleaves\nInterleave, duration : 42 ms (1.00 video frame)\nInterleave, preload duration : 500 ms\n\n\nPlot:\n\nJoshua Lazarus (Nick Stahl) is a telepath who has been raised in a NSA foster home. Lazarus helps the government by using his abilities...\n\n\nScreens:\n\n &lt;a href=&quot;\nhttp://www.postimg.com/image/32000/photo-31502.jpg&quot; rel=&quot;nofollow&quot; target=&quot;_NEW&quot;&gt;\nhttp://www.postimg.com/image/32000/photo-31502.jpg&lt;/a&gt;\n &lt;a href=&quot;\nhttp://www.postimg.com/image/32000/photo-31503.jpg&quot; rel=&quot;nofollow&quot; target=&quot;_NEW&quot;&gt;\nhttp://www.postimg.com/image/32000/photo-31503.jpg&lt;/a&gt;\n &lt;a href=&quot;\nhttp://www.postimg.com/image/32000/photo-31504.jpg&quot; rel=&quot;nofollow&quot; target=&quot;_NEW&quot;&gt;\nhttp://www.postimg.com/image/32000/photo-31504.jpg&lt;/a&gt;\n\n\nENJOY!","torrent":{"xt":"urn:btih:933c16024e8d9929759974c03130a604eae1c821","amp;dn":"The.Speed.of.Thought.2011.DvDRip.XviD.Ac3.Feel-Free","amp;tr":["udp%3A%2F%2Ftracker.openbittorrent.com%3A80","udp%3A%2F%2Fopen.demonii.com%3A1337","udp%3A%2F%2Ftracker.coppersurfer.tk%3A6969","udp%3A%2F%2Fexodus.desync.com%3A6969"],"infoHash":"933c16024e8d9929759974c03130a604eae1c821","infoHashBuffer":{"type":"Buffer","data":[147,60,22,2,78,141,153,41,117,153,116,192,49,48,166,4,234,225,200,33]},"announce":[],"urlList":[]}}